<svg width="500" height="300" xmlns="http://www.w3.org/2000/svg" version="1.1">
 <g>
  <title>Layer 1</title>
  <g id="document" fill="#ffffff" fill-rule="nonzero" font-family="none" font-weight="none" font-size="none">
   <rect x="930" y="220.35714" transform="scale(1,1.4)" width="700" height="500" id="Shape-1-1"/>
  </g>
  <g fill="none" fill-rule="nonzero" stroke-miterlimit="10" font-family="none" font-weight="none" font-size="none" id="svg_1">
   <g id="stage">
    <g id="layer1-1">
     <g id="Group-1">
      <g id="Group-1-1" fill="#171717">
       <g id="Group-1-2">
        <path d="m1030,658.5l0,150l250,0l250,0l0,-150l0,-150l-250,0l-250,0l0,150zm139.97396,-16.42361c4.39453,7.1875 8.26823,13.57639 8.59375,14.23611c0.35807,0.625 0.71614,1.14583 0.8138,1.14583c0.13021,0 0.16276,-6.38889 0.09766,-14.23611l-0.06511,-14.23611l3.58073,0l3.58073,0l0,20.48611l0,20.48611l-3.32031,0l-3.35287,0l-6.08724,-9.82639c-3.32031,-5.38194 -7.25911,-11.73611 -8.6914,-14.09722l-2.63672,-4.34028l0,14.13195l0,14.13194l-3.41797,0l-3.41797,0l0,-20.48611l0,-20.48611l3.19011,0l3.15755,0l7.97526,13.09028zm111.91406,2.25694c3.15755,8.36806 5.82682,15.06945 5.95703,14.93056c0.13021,-0.13889 1.62761,-3.99306 3.38542,-8.57639c1.75781,-4.58333 4.32943,-11.31945 5.72917,-14.93056l2.53906,-6.59722l4.23177,-0.10416l4.26432,-0.10417l-0.0651,20.41667l-0.09766,20.41666l-3.32031,0.10417l-3.35287,0.10417l-0.0651,-14.02778l-0.09766,-14.02778l-5.40364,13.92361l-5.3711,13.92361l-2.4414,0.10417c-2.40885,0.10417 -2.47396,0.06944 -2.86459,-0.86806c-1.04167,-2.39583 -10.12369,-26.18055 -10.12369,-26.45833c0,-0.20833 -0.09766,-0.41667 -0.22787,-0.48611c-0.16276,-0.10417 -0.26041,6.11111 -0.26041,13.75l0,13.95833l-3.41797,0l-3.41797,0l-0.09766,-20.41666l-0.0651,-20.41667l4.42708,0.10417l4.42708,0.10416l5.72917,15.17361zm-24.67448,-8.57639l0,3.64584l2.92969,0l2.92969,0l0,2.95139l0,2.95139l-2.92969,0l-2.96224,0l0.09766,8.54166l0.09765,8.54167l0.94401,0.86805c0.84635,0.76389 1.17188,0.86806 2.70183,0.69445c1.6276,-0.17361 1.72526,-0.13889 1.72526,0.59028c0,0.45139 0.09765,1.73611 0.19531,2.88194l0.22786,2.08333l-1.49739,0.38195c-4.52474,1.21528 -8.62631,-0.3125 -10.41667,-3.85417c-0.68359,-1.38889 -0.71614,-1.94444 -0.8138,-11.11111l-0.13021,-9.61805l-1.92057,0l-1.92058,0l0,-2.95139l0,-2.95139l1.95313,0l1.95312,0l0,-3.64584l0,-3.64583l3.41797,0l3.41797,0l0,3.64583zm-47.46094,4.40973c4.78516,2.36111 7.64975,7.8125 7.35678,14.13194l-0.09766,2.1875l-9.60287,0.06945c-10.8724,0.03472 -10.1888,-0.17362 -9.4401,2.95138c0.78125,3.36806 3.125,5.20834 6.60807,5.24306c2.40885,0 3.97136,-0.76389 5.07813,-2.46528l0.84635,-1.31944l3.19011,-0.03472c3.15755,0 3.1901,-0.00001 2.96224,0.76388c-0.87891,3.19444 -3.02734,5.90278 -5.79427,7.32639c-6.90104,3.61111 -15.59245,0.59028 -18.71745,-6.45833c-1.13932,-2.63889 -1.39974,-3.99305 -1.36719,-8.02083c0,-7.60417 3.35287,-12.77779 9.63542,-15.03473c2.14844,-0.76389 7.1289,-0.41666 9.34244,0.65973zm120.73568,-0.10417c2.08333,0.86806 3.8737,2.53472 4.94792,4.65278c0.68359,1.42361 0.71614,1.80555 0.8138,13.33333l0.09766,11.90972l-3.28776,0l-3.25521,0l0,-2.15277l0,-2.1875l-1.00912,1.31944c-4.03646,5.20833 -13.15104,4.51389 -16.01562,-1.28472c-0.55339,-1.14583 -0.71615,-2.01389 -0.71615,-4.40972c0,-2.70833 0.09765,-3.125 0.97656,-4.6875c1.36719,-2.36111 3.90626,-3.71528 7.84506,-4.27084c5.4362,-0.72917 7.25911,-1.07638 8.13802,-1.49305c0.7487,-0.38194 0.84635,-0.55555 0.68359,-1.73611c-0.35807,-2.74306 -2.08334,-4.2014 -5.11068,-4.23612c-2.18099,-0.03472 -3.77604,0.83334 -4.52474,2.46528l-0.52083,1.14584l-3.32031,0c-3.84115,0 -3.8737,0 -2.57162,-2.95139c1.20443,-2.74306 4.16667,-5.24306 7.25912,-6.07639c2.18099,-0.55556 7.51953,-0.20834 9.57031,0.65972zm25.19531,-0.20833c0.78125,0.24306 1.98568,1.1111 3.02735,2.15277l1.69271,1.77084l0,-2.1875l0,-2.22222l3.35286,0.10416l3.32031,0.10417l0,16.49305c0,16.25 -0.03254,16.52778 -0.74869,18.4375c-1.95312,5.24306 -6.90104,7.95139 -13.73698,7.5c-3.35286,-0.20833 -5.85937,-1.14583 -7.8125,-2.91666c-1.36719,-1.25 -3.25521,-4.02778 -3.25521,-4.79167c0,-0.34722 5.79427,-2.15278 5.95703,-1.875c0.0651,0.06944 0.29297,0.55556 0.52083,1.07639c0.29297,0.55556 1.13933,1.31945 2.11589,1.84028c3.0599,1.63194 7.38932,0.86806 9.04948,-1.5625c0.68359,-1.00694 1.23698,-4.13194 1.23698,-7.04861l0,-2.01389l-1.72526,1.90972c-2.21354,2.39583 -4.36198,3.19444 -7.8125,2.88194c-6.1849,-0.55556 -10.09115,-5.59028 -10.54688,-13.61111c-0.29297,-5.41667 0.87891,-9.75694 3.51563,-12.8125c3.0599,-3.57639 7.1289,-4.68749 11.84895,-3.22916zm-127.53906,4.65277c1.39974,2.84722 2.57162,5.34723 2.63672,5.55556c0.0651,0.24306 0.22786,0.45139 0.32552,0.45139c0.13021,0 1.49739,-2.5 2.99479,-5.55556l2.76693,-5.55555l3.67839,0c1.98568,0 3.64583,0.06944 3.64583,0.17361c0,0.10417 -0.84635,1.63195 -1.88802,3.40278c-1.04167,1.77083 -3.02734,5.17361 -4.39453,7.56944l-2.53907,4.40972l3.71094,6.00695c4.13411,6.77083 5.11068,8.47222 5.11068,8.78472c0,0.10417 -1.59505,0.20833 -3.54818,0.20833l-3.54818,0l-2.21354,-4.09722c-1.20443,-2.22222 -2.5065,-4.58333 -2.89713,-5.20833l-0.7487,-1.14584l-3.02734,5.20834l-3.02735,5.24305l-3.51562,0c-2.14844,0 -3.51563,-0.13889 -3.51563,-0.34722c0,-0.34722 7.51953,-12.88194 8.39844,-13.95833c0.42318,-0.55556 0.06511,-1.31945 -3.97135,-8.19445c-2.44141,-4.16667 -4.42709,-7.70833 -4.42709,-7.8125c0,-0.13889 1.66016,-0.24305 3.71094,-0.24305l3.74349,0l2.53906,5.10416zm165.78776,-2.43055l0,2.70833l-6.86849,9.375l-6.83594,9.375l7.35678,0.10417l7.32421,0.06944l0,3.125l0,3.125l-11.71875,0l-11.71875,0l0,-2.36111l0.03256,-2.32639l7.09635,-9.72222l7.09635,-9.72222l-7.03125,-0.17361l-7.03125,-0.17361l-0.09765,-3.05556l-0.09766,-3.02083l11.26302,0l11.23047,0l0,2.67361z" id="CompoundPath-1"/>
        <path d="m1203.33984,644.75c-0.16276,0.10417 -0.71615,0.24305 -1.23698,0.34722c-1.52995,0.38194 -3.41796,2.5 -3.97135,4.47917c-0.26042,0.97222 -0.48828,1.875 -0.48828,2.04861c0,0.13889 2.86459,0.27778 6.38021,0.27778l6.41276,0l-0.22787,-1.63195c-0.26042,-2.04861 -1.43229,-3.99305 -2.86458,-4.72222c-1.13932,-0.59028 -3.41797,-1.00694 -4.00391,-0.79861z" id="Path-1"/>
        <path d="m1329.47917,655.82639c-0.09766,0.10417 -1.88802,0.34722 -4.00391,0.55555c-5.37109,0.55556 -6.73828,1.45834 -6.73828,4.40973c0,3.95833 4.81771,5.55555 8.26823,2.77777c1.98568,-1.63194 2.86458,-3.54167 2.73437,-5.9375c-0.0651,-1.07639 -0.16275,-1.90972 -0.26041,-1.80555z" id="Path-1-1"/>
        <path d="m1351.09375,645.96528c-2.47396,1.18056 -3.71094,4.0625 -3.71094,8.50694c0,4.6875 1.00912,7.08333 3.58073,8.4375c2.63672,1.45833 5.5013,0.90278 7.38932,-1.38889c1.39974,-1.70139 1.88802,-3.61111 1.85547,-7.36111c-0.03255,-3.36806 -0.65104,-5.48611 -2.08333,-7.08333c-1.6276,-1.80556 -4.6224,-2.29167 -7.03125,-1.11111z" id="Path-1-2"/>
       </g>
      </g>
      <g id="Group-1-3">
       <g id="Group-1-4" fill="none" font-family="sans-serif" font-weight="normal" font-size="12" text-anchor="start"/>
       <g id="Group-1-5">
        <g id="Group-1-6">
         <g id="Group-1-7">
          <g id="Group-1-8">
           <path d="m1149.17253,671.3167c0,-25.3161 0.24478,-16.57346 0.24478,-42.65672c24.38131,0 12.77929,-0.50834 37.89943,-0.50834c0,25.3161 -0.24479,19.62349 -0.24479,45.70675c-24.38131,0 -12.77928,-2.54169 -37.89942,-2.54169z" id="Path-1-3" fill="#171717"/>
           <path d="m1179.98418,629.67308c-0.13613,0.12806 -0.27226,0.25611 -0.4125,0.38806c-0.1403,0.13602 -0.28059,0.27202 -0.42513,0.41216c-0.30886,0.29179 -0.61781,0.58347 -0.92688,0.87501c-0.15443,0.14694 -0.30886,0.29387 -0.46797,0.44526c-0.69291,0.65484 -1.39839,1.29323 -2.10473,1.93124c-0.26976,0.24459 -0.53949,0.48922 -0.80918,0.73391c-0.13307,0.12062 -0.26615,0.24121 -0.40325,0.36549c-0.81544,0.73936 -1.62997,1.47987 -2.4447,2.22014c-0.6766,0.61471 -1.35342,1.22914 -2.03068,1.84303c-1.40937,1.27797 -2.81482,2.56056 -4.2146,3.85062c-2.97772,2.7433 -5.97488,5.45485 -9.03929,8.08663c-0.08286,-7.47203 -0.16572,-14.94408 -0.25109,-22.64254c-2.40294,0 -4.80588,0 -7.28165,0c0,13.60978 0,27.21957 0,41.24176c1.32019,-1.06295 2.58085,-2.11884 3.81346,-3.28519c0.32974,-0.30938 0.65962,-0.61859 0.98964,-0.92765c0.16317,-0.15294 0.32634,-0.30586 0.49446,-0.46342c1.10288,-1.02834 2.22238,-2.03574 3.33959,-3.04603c0.412,-0.37325 0.82306,-0.74768 1.23388,-1.12244c1.2572,-1.14631 2.51756,-2.28637 3.79776,-3.40314c1.22145,-1.06696 2.41628,-2.16423 3.60894,-3.26781c0.87922,-0.81184 1.76699,-1.60923 2.66834,-2.39282c1.10172,-0.96043 2.17802,-1.94824 3.24849,-2.94824c1.21454,-1.13424 2.43035,-2.26652 3.65651,-3.38627c0.24567,-0.22481 0.49134,-0.44963 0.74445,-0.68125c0.90681,-0.79671 1.84911,-1.54591 2.78653,-2.30068c0.08286,9.87375 0.16571,19.74751 0.25108,29.92047c2.4858,0 4.97161,0 7.53274,0c0,-14.4993 0,-28.99862 0,-43.93729c-5.79848,0 -5.79848,0.00002 -7.35422,1.49099z" id="Path-1-4" fill="#6852ed"/>
           <path d="m1175.03494,653.52017c-1.16268,0.49927 -1.80096,1.00137 -2.66785,1.90372c-1.19139,1.20766 -2.42083,2.33521 -3.69772,3.43891c-0.65816,0.58149 -1.29059,1.18409 -1.92045,1.80054c-0.85808,0.83955 -1.73385,1.64209 -2.63646,2.42599c-1.12092,0.97349 -2.19202,1.99108 -3.25731,3.03353c-0.65208,0.62212 -1.3211,1.21344 -1.99992,1.80159c-1.43492,1.24774 -2.83591,2.54106 -4.15869,3.92539c0,0.08895 0,0.1779 0,0.26954c6.71166,0 13.42335,0 20.3384,0c0,-6.13774 0,-12.27547 0,-18.59921z" id="Path-1-5" fill="#6852ed"/>
           <path d="m1156.45418,628.18209c-2.23723,0 -4.47445,0 -6.77947,0c0,0.1779 0,0.35582 0,0.53912c2.07151,0 4.14301,0 6.27729,0c0,7.47203 0,14.94405 0,22.64251c0.63667,-0.68348 0.5613,-1.1111 0.56466,-2.04309c-0.00271,-0.31468 -0.0027,-0.31469 -0.00546,-0.63573c0.00008,-0.22092 0.00013,-0.44184 0.00021,-0.66946c-0.00035,-0.7322 -0.00426,-1.46431 -0.00819,-2.1965c-0.00093,-0.50689 -0.00165,-1.01376 -0.00216,-1.52065c-0.00192,-1.33564 -0.00684,-2.67126 -0.01239,-4.0069c-0.00513,-1.3623 -0.00744,-2.7246 -0.00997,-4.0869c-0.00539,-2.67414 -0.01423,-5.34827 -0.02452,-8.0224z" id="Path-1-6" fill="#705af4"/>
           <path d="m1175.03494,653.52017c-0.24858,0.08895 -0.49717,0.17791 -0.75328,0.26955c0.08286,5.95984 0.16573,11.91969 0.2511,18.06012c-6.54595,0 -13.09191,0 -19.83622,0c0,0.08895 0,0.1779 0,0.26954c6.71166,0 13.42335,0 20.3384,0c0,-6.13774 0,-12.27547 0,-18.59921z" id="Path-1-7" fill="#6f5bdd"/>
           <path d="m1174.53276,654.05926c-0.33144,0.08895 -0.66289,0.17792 -1.00438,0.26956c0.16572,0.1779 0.33144,0.35581 0.50218,0.53911c0.08342,0.71962 0.08342,0.71961 0.08006,1.5706c0.00499,0.32916 0.00998,0.65832 0.01513,0.99745c0.00299,0.36048 0.00591,0.72097 0.00879,1.08145c0.00469,0.36788 0.00961,0.73577 0.01473,1.10365c0.0129,0.96869 0.02285,1.93738 0.03218,2.90611c0.01004,0.98834 0.02288,1.97665 0.03548,2.96496c0.02431,1.9395 0.04549,3.879 0.06473,5.81857c0.08286,0 0.16573,0 0.2511,0c0,-5.69297 0,-11.38597 0,-17.25146z" id="Path-1-8" fill="#604be2"/>
           <path d="m1158.46291,660.79813c-1.04059,0.45837 -1.81877,1.2512 -2.65215,2.0385c-0.31303,0.29155 -0.62624,0.58285 -0.93963,0.87394c-0.1556,0.1448 -0.31122,0.2896 -0.47154,0.4388c-0.66411,0.61487 -1.33489,1.2198 -2.00995,1.82081c-0.32384,0.28927 -0.32384,0.28928 -0.65421,0.58439c-0.55101,0.48908 -0.55102,0.48906 -1.30744,0.71283c0,0.1779 0,0.35582 0,0.53912c-0.16572,0.08895 -0.33144,0.17792 -0.50218,0.26956c1.34924,-0.09327 2.06186,-0.92049 3.01309,-1.85319c0.33262,-0.31857 0.66547,-0.63691 0.99849,-0.95502c0.16742,-0.16101 0.33483,-0.32201 0.50732,-0.4879c0.90749,-0.86188 1.8414,-1.69031 2.77549,-2.51865c0.96445,-0.86577 0.96446,-0.86577 1.24271,-1.46319z" id="Path-1-9" fill="#735ded"/>
          </g>
         </g>
         <g id="Group-1-9" fill="none" font-family="sans-serif" font-weight="normal" font-size="12" text-anchor="start"/>
        </g>
       </g>
      </g>
     </g>
    </g>
   </g>
  </g>
  <g id="svg_27">
   <g id="svg_25" fill="#ffffff" fill-rule="nonzero" font-family="none" font-weight="none" font-size="none"/>
   <g id="svg_28" fill="none" fill-rule="nonzero" stroke-miterlimit="10" font-family="none" font-weight="none" font-size="none">
    <g id="svg_2">
     <g id="svg_3">
      <g id="svg_4">
       <g id="svg_19" fill="#171717">
        <g id="svg_20">
         <path d="m0,150l0,150l250,0l250,0l0,-150l0,-150l-250,0l-250,0l0,150zm139.97396,-16.42361c4.39453,7.1875 8.26823,13.57639 8.59375,14.23611c0.35807,0.625 0.71614,1.14583 0.8138,1.14583c0.13021,0 0.16276,-6.38889 0.09766,-14.23611l-0.06511,-14.23611l3.58073,0l3.58073,0l0,20.48611l0,20.48611l-3.32031,0l-3.35287,0l-6.08724,-9.82639c-3.32031,-5.38194 -7.25911,-11.73611 -8.6914,-14.09722l-2.63672,-4.34028l0,14.13195l0,14.13194l-3.41797,0l-3.41797,0l0,-20.48611l0,-20.48611l3.19011,0l3.15755,0l7.97526,13.09028zm111.91406,2.25694c3.15755,8.36806 5.82682,15.06945 5.95703,14.93056c0.13021,-0.13889 1.62761,-3.99306 3.38542,-8.57639c1.75781,-4.58333 4.32943,-11.31945 5.72917,-14.93056l2.53906,-6.59722l4.23177,-0.10416l4.26432,-0.10417l-0.0651,20.41667l-0.09766,20.41666l-3.32031,0.10417l-3.35287,0.10417l-0.0651,-14.02778l-0.09766,-14.02778l-5.40364,13.92361l-5.3711,13.92361l-2.4414,0.10417c-2.40885,0.10417 -2.47396,0.06944 -2.86459,-0.86806c-1.04167,-2.39583 -10.12369,-26.18055 -10.12369,-26.45833c0,-0.20833 -0.09766,-0.41667 -0.22787,-0.48611c-0.16276,-0.10417 -0.26041,6.11111 -0.26041,13.75l0,13.95833l-3.41797,0l-3.41797,0l-0.09766,-20.41666l-0.0651,-20.41667l4.42708,0.10417l4.42708,0.10416l5.72917,15.17361zm-24.67448,-8.57639l0,3.64584l2.92969,0l2.92969,0l0,2.95139l0,2.95139l-2.92969,0l-2.96224,0l0.09766,8.54166l0.09765,8.54167l0.94401,0.86805c0.84635,0.76389 1.17188,0.86806 2.70183,0.69445c1.6276,-0.17361 1.72526,-0.13889 1.72526,0.59028c0,0.45139 0.09765,1.73611 0.19531,2.88194l0.22786,2.08333l-1.49739,0.38195c-4.52474,1.21528 -8.62631,-0.3125 -10.41667,-3.85417c-0.68359,-1.38889 -0.71614,-1.94444 -0.8138,-11.11111l-0.13021,-9.61805l-1.92057,0l-1.92058,0l0,-2.95139l0,-2.95139l1.95313,0l1.95312,0l0,-3.64584l0,-3.64583l3.41797,0l3.41797,0l0,3.64583zm-47.46094,4.40973c4.78516,2.36111 7.64975,7.8125 7.35678,14.13194l-0.09766,2.1875l-9.60287,0.06945c-10.8724,0.03472 -10.1888,-0.17362 -9.4401,2.95138c0.78125,3.36806 3.125,5.20834 6.60807,5.24306c2.40885,0 3.97136,-0.76389 5.07813,-2.46528l0.84635,-1.31944l3.19011,-0.03472c3.15755,0 3.1901,-0.00001 2.96224,0.76388c-0.87891,3.19444 -3.02734,5.90278 -5.79427,7.32639c-6.90104,3.61111 -15.59245,0.59028 -18.71745,-6.45833c-1.13932,-2.63889 -1.39974,-3.99305 -1.36719,-8.02083c0,-7.60417 3.35287,-12.77779 9.63542,-15.03473c2.14844,-0.76389 7.1289,-0.41666 9.34244,0.65973zm120.73568,-0.10417c2.08333,0.86806 3.8737,2.53472 4.94792,4.65278c0.68359,1.42361 0.71614,1.80555 0.8138,13.33333l0.09766,11.90972l-3.28776,0l-3.25521,0l0,-2.15277l0,-2.1875l-1.00912,1.31944c-4.03646,5.20833 -13.15104,4.51389 -16.01562,-1.28472c-0.55339,-1.14583 -0.71615,-2.01389 -0.71615,-4.40972c0,-2.70833 0.09765,-3.125 0.97656,-4.6875c1.36719,-2.36111 3.90626,-3.71528 7.84506,-4.27084c5.4362,-0.72917 7.25911,-1.07638 8.13802,-1.49305c0.7487,-0.38194 0.84635,-0.55555 0.68359,-1.73611c-0.35807,-2.74306 -2.08334,-4.2014 -5.11068,-4.23612c-2.18099,-0.03472 -3.77604,0.83334 -4.52474,2.46528l-0.52083,1.14584l-3.32031,0c-3.84115,0 -3.8737,0 -2.57162,-2.95139c1.20443,-2.74306 4.16667,-5.24306 7.25912,-6.07639c2.18099,-0.55556 7.51953,-0.20834 9.57031,0.65972zm25.19531,-0.20833c0.78125,0.24306 1.98568,1.1111 3.02735,2.15277l1.69271,1.77084l0,-2.1875l0,-2.22222l3.35286,0.10416l3.32031,0.10417l0,16.49305c0,16.25 -0.03254,16.52778 -0.74869,18.4375c-1.95312,5.24306 -6.90104,7.95139 -13.73698,7.5c-3.35286,-0.20833 -5.85937,-1.14583 -7.8125,-2.91666c-1.36719,-1.25 -3.25521,-4.02778 -3.25521,-4.79167c0,-0.34722 5.79427,-2.15278 5.95703,-1.875c0.0651,0.06944 0.29297,0.55556 0.52083,1.07639c0.29297,0.55556 1.13933,1.31945 2.11589,1.84028c3.0599,1.63194 7.38932,0.86806 9.04948,-1.5625c0.68359,-1.00694 1.23698,-4.13194 1.23698,-7.04861l0,-2.01389l-1.72526,1.90972c-2.21354,2.39583 -4.36198,3.19444 -7.8125,2.88194c-6.1849,-0.55556 -10.09115,-5.59028 -10.54688,-13.61111c-0.29297,-5.41667 0.87891,-9.75694 3.51563,-12.8125c3.0599,-3.57639 7.1289,-4.68749 11.84895,-3.22916zm-127.53906,4.65277c1.39974,2.84722 2.57162,5.34723 2.63672,5.55556c0.0651,0.24306 0.22786,0.45139 0.32552,0.45139c0.13021,0 1.49739,-2.5 2.99479,-5.55556l2.76693,-5.55555l3.67839,0c1.98568,0 3.64583,0.06944 3.64583,0.17361c0,0.10417 -0.84635,1.63195 -1.88802,3.40278c-1.04167,1.77083 -3.02734,5.17361 -4.39453,7.56944l-2.53907,4.40972l3.71094,6.00695c4.13411,6.77083 5.11068,8.47222 5.11068,8.78472c0,0.10417 -1.59505,0.20833 -3.54818,0.20833l-3.54818,0l-2.21354,-4.09722c-1.20443,-2.22222 -2.5065,-4.58333 -2.89713,-5.20833l-0.7487,-1.14584l-3.02734,5.20834l-3.02735,5.24305l-3.51562,0c-2.14844,0 -3.51563,-0.13889 -3.51563,-0.34722c0,-0.34722 7.51953,-12.88194 8.39844,-13.95833c0.42318,-0.55556 0.06511,-1.31945 -3.97135,-8.19445c-2.44141,-4.16667 -4.42709,-7.70833 -4.42709,-7.8125c0,-0.13889 1.66016,-0.24305 3.71094,-0.24305l3.74349,0l2.53906,5.10416zm165.78776,-2.43055l0,2.70833l-6.86849,9.375l-6.83594,9.375l7.35678,0.10417l7.32421,0.06944l0,3.125l0,3.125l-11.71875,0l-11.71875,0l0,-2.36111l0.03256,-2.32639l7.09635,-9.72222l7.09635,-9.72222l-7.03125,-0.17361l-7.03125,-0.17361l-0.09765,-3.05556l-0.09766,-3.02083l11.26302,0l11.23047,0l0,2.67361z" id="svg_24"/>
         <path d="m173.33984,136.25c-0.16276,0.10417 -0.71615,0.24305 -1.23698,0.34722c-1.52995,0.38194 -3.41796,2.5 -3.97135,4.47917c-0.26042,0.97222 -0.48828,1.875 -0.48828,2.04861c0,0.13889 2.86459,0.27778 6.38021,0.27778l6.41276,0l-0.22787,-1.63195c-0.26042,-2.04861 -1.43229,-3.99305 -2.86458,-4.72222c-1.13932,-0.59028 -3.41797,-1.00694 -4.00391,-0.79861z" id="svg_23"/>
         <path d="m299.47917,147.32639c-0.09766,0.10417 -1.88802,0.34722 -4.00391,0.55555c-5.37109,0.55556 -6.73828,1.45834 -6.73828,4.40973c0,3.95833 4.81771,5.55555 8.26823,2.77777c1.98568,-1.63194 2.86458,-3.54167 2.73437,-5.9375c-0.0651,-1.07639 -0.16275,-1.90972 -0.26041,-1.80555z" id="svg_22"/>
         <path d="m321.09375,137.46528c-2.47396,1.18056 -3.71094,4.0625 -3.71094,8.50694c0,4.6875 1.00912,7.08333 3.58073,8.4375c2.63672,1.45833 5.5013,0.90278 7.38932,-1.38889c1.39974,-1.70139 1.88802,-3.61111 1.85547,-7.36111c-0.03255,-3.36806 -0.65104,-5.48611 -2.08333,-7.08333c-1.6276,-1.80556 -4.6224,-2.29167 -7.03125,-1.11111z" id="svg_21"/>
        </g>
       </g>
       <g id="svg_5">
        <g id="svg_18" fill="none" font-family="sans-serif" font-weight="normal" font-size="12" text-anchor="start"/>
        <g id="svg_6">
         <g id="svg_7">
          <g id="svg_9">
           <g id="svg_10">
            <path d="m119.17253,162.8167c0,-25.3161 0.24478,-16.57346 0.24478,-42.65672c24.38131,0 12.77929,-0.50834 37.89943,-0.50834c0,25.3161 -0.24479,19.62349 -0.24479,45.70675c-24.38131,0 -12.77928,-2.54169 -37.89942,-2.54169z" id="svg_17" fill="#171717"/>
            <path d="m149.98418,121.17308c-0.13613,0.12806 -0.27226,0.25611 -0.4125,0.38806c-0.1403,0.13602 -0.28059,0.27202 -0.42513,0.41216c-0.30886,0.29179 -0.61781,0.58347 -0.92688,0.87501c-0.15443,0.14694 -0.30886,0.29387 -0.46797,0.44526c-0.69291,0.65484 -1.39839,1.29323 -2.10473,1.93124c-0.26976,0.24459 -0.53949,0.48922 -0.80918,0.73391c-0.13307,0.12062 -0.26615,0.24121 -0.40325,0.36549c-0.81544,0.73936 -1.62997,1.47987 -2.4447,2.22014c-0.6766,0.61471 -1.35342,1.22914 -2.03068,1.84303c-1.40937,1.27797 -2.81482,2.56056 -4.2146,3.85062c-2.97772,2.7433 -5.97488,5.45485 -9.03929,8.08663c-0.08286,-7.47203 -0.16572,-14.94408 -0.25109,-22.64254c-2.40294,0 -4.80588,0 -7.28165,0c0,13.60978 0,27.21957 0,41.24176c1.32019,-1.06295 2.58085,-2.11884 3.81346,-3.28519c0.32974,-0.30938 0.65962,-0.61859 0.98964,-0.92765c0.16317,-0.15294 0.32634,-0.30586 0.49446,-0.46342c1.10288,-1.02834 2.22238,-2.03574 3.33959,-3.04603c0.412,-0.37325 0.82306,-0.74768 1.23388,-1.12244c1.2572,-1.14631 2.51756,-2.28637 3.79776,-3.40314c1.22145,-1.06696 2.41628,-2.16423 3.60894,-3.26781c0.87922,-0.81184 1.76699,-1.60923 2.66834,-2.39282c1.10172,-0.96043 2.17802,-1.94824 3.24849,-2.94824c1.21454,-1.13424 2.43035,-2.26652 3.65651,-3.38627c0.24567,-0.22481 0.49134,-0.44963 0.74445,-0.68125c0.90681,-0.79671 1.84911,-1.54591 2.78653,-2.30068c0.08286,9.87375 0.16571,19.74751 0.25108,29.92047c2.4858,0 4.97161,0 7.53274,0c0,-14.4993 0,-28.99862 0,-43.93729c-5.79848,0 -5.79848,0.00002 -7.35422,1.49099z" id="svg_16" fill="#6852ed"/>
            <path d="m145.03494,145.02017c-1.16268,0.49927 -1.80096,1.00137 -2.66785,1.90372c-1.19139,1.20766 -2.42083,2.33521 -3.69772,3.43891c-0.65816,0.58149 -1.29059,1.18409 -1.92045,1.80054c-0.85808,0.83955 -1.73385,1.64209 -2.63646,2.42599c-1.12092,0.97349 -2.19202,1.99108 -3.25731,3.03353c-0.65208,0.62212 -1.3211,1.21344 -1.99992,1.80159c-1.43492,1.24774 -2.83591,2.54106 -4.15869,3.92539c0,0.08895 0,0.1779 0,0.26954c6.71166,0 13.42335,0 20.3384,0c0,-6.13774 0,-12.27547 0,-18.59921z" id="svg_15" fill="#6852ed"/>
            <path d="m126.45418,119.68209c-2.23723,0 -4.47445,0 -6.77947,0c0,0.1779 0,0.35582 0,0.53912c2.07151,0 4.14301,0 6.27729,0c0,7.47203 0,14.94405 0,22.64251c0.63667,-0.68348 0.5613,-1.1111 0.56466,-2.04309c-0.00271,-0.31468 -0.0027,-0.31469 -0.00546,-0.63573c0.00008,-0.22092 0.00013,-0.44184 0.00021,-0.66946c-0.00035,-0.7322 -0.00426,-1.46431 -0.00819,-2.1965c-0.00093,-0.50689 -0.00165,-1.01376 -0.00216,-1.52065c-0.00192,-1.33564 -0.00684,-2.67126 -0.01239,-4.0069c-0.00513,-1.3623 -0.00744,-2.7246 -0.00997,-4.0869c-0.00539,-2.67414 -0.01423,-5.34827 -0.02452,-8.0224z" id="svg_14" fill="#705af4"/>
            <path d="m145.03494,145.02017c-0.24858,0.08895 -0.49717,0.17791 -0.75328,0.26955c0.08286,5.95984 0.16573,11.91969 0.2511,18.06012c-6.54595,0 -13.09191,0 -19.83622,0c0,0.08895 0,0.1779 0,0.26954c6.71166,0 13.42335,0 20.3384,0c0,-6.13774 0,-12.27547 0,-18.59921z" id="svg_13" fill="#6f5bdd"/>
            <path d="m144.53276,145.55926c-0.33144,0.08895 -0.66289,0.17792 -1.00438,0.26956c0.16572,0.1779 0.33144,0.35581 0.50218,0.53911c0.08342,0.71962 0.08342,0.71961 0.08006,1.5706c0.00499,0.32916 0.00998,0.65832 0.01513,0.99745c0.00299,0.36048 0.00591,0.72097 0.00879,1.08145c0.00469,0.36788 0.00961,0.73577 0.01473,1.10365c0.0129,0.96869 0.02285,1.93738 0.03218,2.90611c0.01004,0.98834 0.02288,1.97665 0.03548,2.96496c0.02431,1.9395 0.04549,3.879 0.06473,5.81857c0.08286,0 0.16573,0 0.2511,0c0,-5.69297 0,-11.38597 0,-17.25146z" id="svg_12" fill="#604be2"/>
            <path d="m128.46291,152.29813c-1.04059,0.45837 -1.81877,1.2512 -2.65215,2.0385c-0.31303,0.29155 -0.62624,0.58285 -0.93963,0.87394c-0.1556,0.1448 -0.31122,0.2896 -0.47154,0.4388c-0.66411,0.61487 -1.33489,1.2198 -2.00995,1.82081c-0.32384,0.28927 -0.32384,0.28928 -0.65421,0.58439c-0.55101,0.48908 -0.55102,0.48906 -1.30744,0.71283c0,0.1779 0,0.35582 0,0.53912c-0.16572,0.08895 -0.33144,0.17792 -0.50218,0.26956c1.34924,-0.09327 2.06186,-0.92049 3.01309,-1.85319c0.33262,-0.31857 0.66547,-0.63691 0.99849,-0.95502c0.16742,-0.16101 0.33483,-0.32201 0.50732,-0.4879c0.90749,-0.86188 1.8414,-1.69031 2.77549,-2.51865c0.96445,-0.86577 0.96446,-0.86577 1.24271,-1.46319z" id="svg_11" fill="#735ded"/>
           </g>
          </g>
          <g id="svg_8" fill="none" font-family="sans-serif" font-weight="normal" font-size="12" text-anchor="start"/>
         </g>
        </g>
       </g>
      </g>
     </g>
    </g>
   </g>
  </g>
 </g>

</svg>