<svg width="500" height="500" xmlns="http://www.w3.org/2000/svg">
 <g>
  <title>Layer 1</title>
  <g id="svg_12" stroke="null">
   <g id="svg_13" fill="none" fill-rule="nonzero" stroke-miterlimit="10" font-family="none" font-weight="none" font-size="none" stroke="null">
    <g id="svg_1" stroke="null">
     <g id="svg_3" stroke="null">
      <g id="svg_4" stroke="null">
       <path d="m0,496.25001c165,0 330,0 500,0c0,-162.525 0,-325.05 0,-492.50001c-165,0 -330,0 -500,0c0,162.525 0,325.05 0,492.50001z" id="svg_11" fill="#171717" stroke="null"/>
       <path d="m159.74154,89.81302c0.9283,0.86025 1.85661,1.72049 2.81305,2.60681c0.95673,0.91365 1.91346,1.82726 2.89918,2.76859c2.10623,1.96008 4.21321,3.91926 6.3209,5.87757c1.05315,0.98701 2.10632,1.97402 3.19139,2.99096c4.72531,4.39873 9.53636,8.68685 14.35329,12.97258c1.83964,1.64298 3.67905,3.28625 5.51825,4.92982c0.90748,0.81022 1.81495,1.62041 2.74993,2.45518c5.56089,4.96652 11.11576,9.9406 16.6718,14.91321c4.61416,4.12918 9.22966,8.25663 13.84829,12.38022c9.61125,8.58445 19.1958,17.19995 28.74171,25.8656c20.30671,18.42741 40.746,36.6415 61.64384,54.31985c0.56507,-50.19154 1.13014,-100.38309 1.71233,-152.0956c16.38699,0 32.77397,0 49.65753,0c0,91.42031 0,182.84063 0,277.03125c-9.00305,-7.14006 -17.60013,-14.23276 -26.00599,-22.06744c-2.24873,-2.07818 -4.49842,-4.15525 -6.74899,-6.23123c-1.11276,-1.02728 -2.22552,-2.05456 -3.37199,-3.11296c-7.52113,-6.9076 -15.15562,-13.67461 -22.77447,-20.461c-2.80967,-2.50726 -5.61292,-5.02232 -8.41448,-7.5397c-8.57356,-7.70009 -17.16862,-15.358 -25.89898,-22.85961c-8.32978,-7.16702 -16.47794,-14.53777 -24.61138,-21.95074c-5.99592,-5.45329 -12.05006,-10.80961 -18.19684,-16.07316c-7.51324,-6.45143 -14.85313,-13.08687 -22.15325,-19.80411c-8.2826,-7.61896 -16.57391,-15.22479 -24.93579,-22.74644c-1.67534,-1.51013 -3.35068,-3.02027 -5.07678,-4.57615c-6.18401,-5.3517 -12.61003,-10.38434 -19.00284,-15.45429c-0.56507,66.32454 -1.13014,132.64908 -1.71233,200.98345c-16.95205,0 -33.90411,0 -51.36986,0c0,-97.3955 0,-194.79099 0,-295.13787c39.54301,0 39.54299,-0.00002 50.15248,10.0152l0,0.00001z" id="svg_10" fill="#6852ed" stroke="null"/>
       <path d="m193.49315,250.00001c7.92896,3.35373 12.28167,6.72649 18.19349,12.7878c8.12476,8.11211 16.50888,15.68626 25.21672,23.10007c4.48834,3.90607 8.80133,7.95388 13.09664,12.09467c5.8517,5.63947 11.824,11.03031 17.97945,16.29595c7.64418,6.53919 14.94867,13.37466 22.21346,20.37703c4.44687,4.17895 9.00922,8.15096 13.63843,12.10172c9.78548,8.3814 19.33972,17.06887 28.36044,26.36776c0,0.59752 0,1.19504 0,1.81067c-45.77055,0 -91.5411,0 -138.69863,0c0,-41.22877 0,-82.45754 0,-124.93567z" id="svg_9" fill="#6852ed" stroke="null"/>
       <path d="m320.20548,79.7978c15.25685,0 30.5137,0 46.23288,0c0,1.19504 0,2.39007 0,3.62132c-14.12671,0 -28.25343,0 -42.80822,0c0,50.19154 0,100.38309 0,152.0956c-4.34182,-4.59115 -3.82781,-7.46366 -3.85076,-13.72407c0.01848,-2.11378 0.01848,-2.11379 0.03732,-4.27027c-0.0005,-1.484 -0.001,-2.968 -0.00153,-4.49698c0.0024,-4.91837 0.02906,-9.83627 0.05586,-14.75455c0.00639,-3.40484 0.01127,-6.80968 0.01469,-10.21454c0.01308,-8.97186 0.04675,-17.94352 0.08461,-26.91531c0.035,-9.15091 0.05066,-18.30184 0.06792,-27.45278c0.03676,-17.9629 0.09701,-35.92562 0.16723,-53.88842z" id="svg_8" fill="#705af4" stroke="null"/>
       <path d="m193.49315,250.00001c1.69521,0.59752 3.39041,1.19504 5.13699,1.81067c-0.56507,40.03373 -1.13014,80.06746 -1.71233,121.31434c44.64041,0 89.28082,0 135.27397,0c0,0.59752 0,1.19504 0,1.81067c-45.77055,0 -91.5411,0 -138.69863,0c0,-41.22877 0,-82.45754 0,-124.93567l0,-0.00001z" id="svg_7" fill="#6f5bdd" stroke="null"/>
       <path d="m196.91781,253.62133c2.26027,0.59752 4.52054,1.19504 6.84931,1.81067c-1.13014,1.19504 -2.26027,2.39007 -3.42465,3.62132c-0.56885,4.83385 -0.56886,4.83385 -0.54598,10.55011c-0.03402,2.21102 -0.06805,4.42205 -0.1031,6.70008c-0.02034,2.42148 -0.04031,4.84298 -0.05993,7.26446c-0.03202,2.47118 -0.06555,4.94234 -0.1005,7.41345c-0.08801,6.50692 -0.15579,13.01392 -0.21942,19.52114c-0.06848,6.63894 -0.15601,13.27757 -0.24195,19.91628c-0.16584,13.02807 -0.31032,26.05631 -0.44145,39.08484c-0.56507,0 -1.13014,0 -1.71233,0c0,-38.24118 0,-76.48236 0,-115.88236l0,0.00001z" id="svg_6" fill="#604be2" stroke="null"/>
       <path d="m306.50685,298.88787c7.09635,3.07899 12.40318,8.40466 18.08647,13.69314c2.13467,1.9584 4.27065,3.91522 6.40786,5.87051c1.06116,0.97273 2.12232,1.94542 3.21564,2.94762c4.52892,4.13023 9.1034,8.19366 13.70698,12.2308c2.20841,1.94309 2.20841,1.94309 4.46142,3.92546c3.75765,3.28523 3.75766,3.28523 8.91615,4.78835c0,1.19504 0,2.39007 0,3.62132c1.13014,0.59752 2.26028,1.19504 3.42466,1.81067c-9.2012,-0.62653 -14.06098,-6.18308 -20.54795,-12.4483c-2.26837,-2.13997 -4.53814,-4.2783 -6.80918,-6.41512c-1.14173,-1.08154 -2.28345,-2.16309 -3.45977,-3.27741c-6.18866,-5.78947 -12.55754,-11.35422 -18.92759,-16.91837c-6.57712,-5.81559 -6.57712,-5.8156 -8.47469,-9.82867z" id="svg_5" fill="#735ded" stroke="null"/>
      </g>
     </g>
     <g id="svg_2" fill="none" font-family="sans-serif" font-weight="normal" font-size="12" text-anchor="start" stroke="null"/>
    </g>
   </g>
  </g>
  <g id="svg_14">
   <g font-size="none" font-weight="none" font-family="none" fill-rule="nonzero" fill="#ffffff" id="svg_51">
    <rect id="svg_52" height="500" width="700" transform="translate(0 250) scale(1 1.4)" y="220.35714" x="1180"/>
   </g>
   <g font-size="none" font-weight="none" font-family="none" stroke-miterlimit="10" fill-rule="nonzero" fill="none" id="svg_15">
    <g id="svg_40">
     <g id="svg_42">
      <g id="svg_43">
       <path fill="#171717" id="svg_50" d="m1280,1158.5c165,0 330,0 500,0c0,-165 0,-330 0,-500c-165,0 -330,0 -500,0c0,165 0,330 0,500z"/>
       <path fill="#6852ed" id="svg_49" d="m1439.74154,745.87362c0.9283,0.87335 1.85661,1.74669 2.81305,2.64651c0.95673,0.92756 1.91346,1.85509 2.89918,2.81075c2.10623,1.98993 4.21321,3.97894 6.3209,5.96708c1.05315,1.00204 2.10632,2.00408 3.19139,3.03651c4.72531,4.46572 9.53636,8.81914 14.35329,13.17013c1.83964,1.668 3.67905,3.33629 5.51825,5.00489c0.90748,0.82256 1.81495,1.64509 2.74993,2.49257c5.56089,5.04215 11.11576,10.09198 16.6718,15.14031c4.61416,4.19206 9.22966,8.38237 13.84829,12.56875c9.61125,8.71518 19.1958,17.46188 28.74171,26.25949c20.30671,18.70803 40.746,37.19949 61.64384,55.14706c0.56507,-50.95588 1.13014,-101.91177 1.71233,-154.41177c16.38699,0 32.77397,0 49.65753,0c0,92.8125 0,185.625 0,281.25c-9.00305,-7.24879 -17.60013,-14.4495 -26.00599,-22.40349c-2.24873,-2.10983 -4.49842,-4.21853 -6.74899,-6.32612c-1.11276,-1.04292 -2.22552,-2.08585 -3.37199,-3.16037c-7.52113,-7.01279 -15.15562,-13.88285 -22.77447,-20.77259c-2.80967,-2.54544 -5.61292,-5.0988 -8.41448,-7.65452c-8.57356,-7.81735 -17.16862,-15.59188 -25.89898,-23.20773c-8.32978,-7.27616 -16.47794,-14.75916 -24.61138,-22.28501c-5.99592,-5.53634 -12.05006,-10.97422 -18.19684,-16.31793c-7.51324,-6.54967 -14.85313,-13.28616 -22.15325,-20.1057c-8.2826,-7.73498 -16.57391,-15.45664 -24.93579,-23.09283c-1.67534,-1.53313 -3.35068,-3.06626 -5.07678,-4.64584c-6.18401,-5.4332 -12.61003,-10.54248 -19.00284,-15.68963c-0.56507,67.33456 -1.13014,134.66911 -1.71233,204.04411c-16.95205,0 -33.90411,0 -51.36986,0c0,-98.87868 0,-197.75735 0,-299.63235c39.54301,0 39.54299,-0.00002 50.15248,10.16772z"/>
       <path fill="#6852ed" id="svg_48" d="m1473.49315,908.5c7.92896,3.4048 12.28167,6.82892 18.19349,12.98254c8.12476,8.23564 16.50888,15.92514 25.21672,23.45185c4.48834,3.96555 8.80133,8.07501 13.09664,12.27885c5.8517,5.72535 11.824,11.19828 17.97945,16.54411c7.64418,6.63877 14.94867,13.57833 22.21346,20.68734c4.44687,4.24259 9.00922,8.27509 13.63843,12.28601c9.78548,8.50904 19.33972,17.3288 28.36044,26.7693c0,0.60662 0,1.21324 0,1.83824c-45.77055,0 -91.5411,0 -138.69863,0c0,-41.85662 0,-83.71324 0,-126.83824z"/>
       <path fill="#705af4" id="svg_47" d="m1600.20548,735.70588c15.25685,0 30.5137,0 46.23288,0c0,1.21324 0,2.42647 0,3.67647c-14.12671,0 -28.25343,0 -42.80822,0c0,50.95588 0,101.91177 0,154.41177c-4.34182,-4.66107 -3.82781,-7.57732 -3.85076,-13.93307c0.01848,-2.14597 0.01848,-2.14598 0.03732,-4.3353c-0.0005,-1.5066 -0.001,-3.0132 -0.00153,-4.56546c0.0024,-4.99327 0.02906,-9.98606 0.05586,-14.97924c0.00639,-3.45669 0.01127,-6.91338 0.01469,-10.37009c0.01308,-9.10849 0.04675,-18.21677 0.08461,-27.32519c0.035,-9.29026 0.05066,-18.58055 0.06792,-27.87084c0.03676,-18.23645 0.09701,-36.47271 0.16723,-54.70905z"/>
       <path fill="#6f5bdd" id="svg_46" d="m1473.49315,908.5c1.69521,0.60662 3.39041,1.21324 5.13699,1.83824c-0.56507,40.64338 -1.13014,81.28676 -1.71233,123.16176c44.64041,0 89.28082,0 135.27397,0c0,0.60662 0,1.21324 0,1.83824c-45.77055,0 -91.5411,0 -138.69863,0c0,-41.85662 0,-83.71324 0,-126.83824z"/>
       <path fill="#604be2" id="svg_45" d="m1476.91781,912.17647c2.26027,0.60662 4.52054,1.21324 6.84931,1.83824c-1.13014,1.21324 -2.26027,2.42647 -3.42465,3.67647c-0.56885,4.90746 -0.56886,4.90746 -0.54598,10.71077c-0.03402,2.24469 -0.06805,4.48939 -0.1031,6.80211c-0.02034,2.45836 -0.04031,4.91673 -0.05993,7.37509c-0.03202,2.50881 -0.06555,5.0176 -0.1005,7.52635c-0.08801,6.60601 -0.15579,13.2121 -0.21942,19.81842c-0.06848,6.74004 -0.15601,13.47977 -0.24195,20.21957c-0.16584,13.22647 -0.31032,26.45311 -0.44145,39.68004c-0.56507,0 -1.13014,0 -1.71233,0c0,-38.82353 0,-77.64706 0,-117.64706z"/>
       <path fill="#735ded" id="svg_44" d="m1586.50685,958.13235c7.09635,3.12588 12.40318,8.53265 18.08647,13.90166c2.13467,1.98822 4.27065,3.97484 6.40786,5.95991c1.06116,0.98754 2.12232,1.97505 3.21564,2.99251c4.52892,4.19313 9.1034,8.31844 13.70698,12.41706c2.20841,1.97268 2.20841,1.97268 4.46142,3.98524c3.75765,3.33526 3.75766,3.33526 8.91615,4.86127c0,1.21324 0,2.42647 0,3.67647c1.13014,0.60662 2.26028,1.21324 3.42466,1.83824c-9.2012,-0.63607 -14.06098,-6.27724 -20.54795,-12.63787c-2.26837,-2.17256 -4.53814,-4.34345 -6.80918,-6.51281c-1.14173,-1.09801 -2.28345,-2.19603 -3.45977,-3.32732c-6.18866,-5.87763 -12.55754,-11.52713 -18.92759,-17.17601c-6.57712,-5.90415 -6.57712,-5.90416 -8.47469,-9.97835z"/>
      </g>
     </g>
     <g text-anchor="start" font-size="12" font-weight="normal" font-family="sans-serif" fill="none" id="svg_41"/>
    </g>
   </g>
  </g>
 </g>

</svg>