<svg width="500" height="500" xmlns="http://www.w3.org/2000/svg">
 <g>
  <title>Layer 1</title>
  <g id="svg_13">
   <g font-size="none" font-weight="none" font-family="none" stroke-miterlimit="10" fill-rule="nonzero" fill="none" id="svg_14">
    <g id="svg_1">
     <g id="svg_2">
      <g id="svg_3">
       <path fill="#ffffff" id="svg_10" d="m0,500c165,0 330,0 500,0c0,-165 0,-330 0,-500c-165,0 -330,0 -500,0c0,165 0,330 0,500z"/>
       <path fill="#6852ed" id="svg_9" d="m159.74154,87.37362c0.9283,0.87335 1.85661,1.74669 2.81305,2.64651c0.95673,0.92756 1.91346,1.85509 2.89918,2.81075c2.10623,1.98993 4.21322,3.97893 6.32091,5.96708c1.05315,1.00204 2.10632,2.00408 3.19139,3.03651c4.72531,4.46572 9.53635,8.81914 14.35329,13.17013c1.83964,1.668 3.67906,3.33629 5.51825,5.00489c0.90748,0.82256 1.81495,1.64509 2.74993,2.49257c5.56089,5.04215 11.11575,10.09199 16.6718,15.14031c4.61416,4.19206 9.22966,8.38237 13.84829,12.56875c9.61125,8.71518 19.1958,17.46187 28.74171,26.25949c20.30671,18.70803 40.74599,37.19949 61.64384,55.14706c0.56507,-50.95588 1.13014,-101.91176 1.71233,-154.41176c16.38699,0 32.77397,0 49.65753,0c0,92.8125 0,185.625 0,281.25c-9.00305,-7.24879 -17.60014,-14.4495 -26.00599,-22.40349c-2.24873,-2.10983 -4.49842,-4.21853 -6.74899,-6.32612c-1.11276,-1.04292 -2.22551,-2.08585 -3.37199,-3.16037c-7.52113,-7.01279 -15.15562,-13.88285 -22.77447,-20.77259c-2.80967,-2.54544 -5.61293,-5.09881 -8.41449,-7.65452c-8.57356,-7.81735 -17.16861,-15.59188 -25.89897,-23.20772c-8.32978,-7.27616 -16.47795,-14.75917 -24.61139,-22.28502c-5.99592,-5.53634 -12.05005,-10.97421 -18.19683,-16.31792c-7.51324,-6.54967 -14.85313,-13.28616 -22.15325,-20.1057c-8.2826,-7.73498 -16.5739,-15.45664 -24.93579,-23.09283c-1.67534,-1.53313 -3.35068,-3.06627 -5.07678,-4.64585c-6.18401,-5.4332 -12.61003,-10.54248 -19.00284,-15.68963c-0.56507,67.33456 -1.13014,134.66912 -1.71233,204.04412c-16.95205,0 -33.90411,0 -51.36986,0c0,-98.87868 0,-197.75735 0,-299.63235c39.54301,0 39.543,-0.00002 50.15248,10.16772l-0.00001,-0.00002z"/>
       <path fill="#6852ed" id="svg_8" d="m193.49315,250c7.92896,3.4048 12.28168,6.82892 18.19349,12.98254c8.12476,8.23564 16.50887,15.92515 25.21671,23.45186c4.48834,3.96555 8.80134,8.075 13.09664,12.27884c5.8517,5.72535 11.82401,11.19829 17.97945,16.54412c7.64418,6.63877 14.94866,13.57833 22.21346,20.68733c4.44687,4.24259 9.00921,8.27509 13.63842,12.28601c9.78548,8.50904 19.33973,17.32881 28.36045,26.7693c0,0.60662 0,1.21324 0,1.83824c-45.77055,0 -91.5411,0 -138.69863,0c0,-41.85662 0,-83.71324 0,-126.83824l0.00001,0z"/>
       <path fill="#705af4" id="svg_7" d="m320.20548,77.20588c15.25685,0 30.5137,0 46.23288,0c0,1.21324 0,2.42647 0,3.67647c-14.12671,0 -28.25342,0 -42.80822,0c0,50.95588 0,101.91176 0,154.41176c-4.34182,-4.66107 -3.82781,-7.57732 -3.85075,-13.93307c0.01848,-2.14597 0.01848,-2.14597 0.03731,-4.33529c-0.0005,-1.5066 -0.00099,-3.0132 -0.00152,-4.56546c0.0024,-4.99327 0.02906,-9.98607 0.05586,-14.97925c0.00639,-3.45669 0.01127,-6.91338 0.01469,-10.37009c0.01308,-9.10849 0.04675,-18.21676 0.08461,-27.32518c0.035,-9.29026 0.05067,-18.58055 0.06793,-27.87085c0.03676,-18.23645 0.097,-36.4727 0.16723,-54.70904l-0.00002,0z"/>
       <path fill="#6f5bdd" id="svg_6" d="m193.49315,250c1.69521,0.60662 3.39041,1.21324 5.13699,1.83824c-0.56507,40.64338 -1.13014,81.28676 -1.71233,123.16176c44.64041,0 89.28082,0 135.27397,0c0,0.60662 0,1.21324 0,1.83824c-45.77055,0 -91.5411,0 -138.69863,0c0,-41.85662 0,-83.71324 0,-126.83824z"/>
       <path fill="#604be2" id="svg_5" d="m196.91781,253.67647c2.26027,0.60662 4.52055,1.21324 6.84932,1.83824c-1.13014,1.21324 -2.26027,2.42647 -3.42466,3.67647c-0.56885,4.90746 -0.56885,4.90746 -0.54598,10.71077c-0.03402,2.24469 -0.06805,4.48939 -0.1031,6.80211c-0.02034,2.45836 -0.04031,4.91673 -0.05993,7.37509c-0.03202,2.50881 -0.06555,5.01759 -0.1005,7.52634c-0.08801,6.60601 -0.15579,13.2121 -0.21942,19.81842c-0.06848,6.74004 -0.15601,13.47978 -0.24195,20.21958c-0.16584,13.22647 -0.31033,26.45311 -0.44146,39.68004c-0.56507,0 -1.13014,0 -1.71233,0c0,-38.82353 0,-77.64706 0,-117.64706l0.00001,0z"/>
       <path fill="#735ded" id="svg_4" d="m306.50685,299.63235c7.09635,3.12588 12.40318,8.53265 18.08647,13.90165c2.13467,1.98822 4.27065,3.97483 6.40786,5.95991c1.06116,0.98754 2.12231,1.97506 3.21563,2.99252c4.52892,4.19313 9.10341,8.31844 13.70699,12.41706c2.20841,1.97268 2.20841,1.97268 4.46142,3.98524c3.75765,3.33526 3.75765,3.33526 8.91615,4.86127c0,1.21324 0,2.42647 0,3.67647c1.13014,0.60662 2.26027,1.21324 3.42466,1.83824c-9.2012,-0.63607 -14.06098,-6.27724 -20.54795,-12.63787c-2.26837,-2.17256 -4.53813,-4.34346 -6.80918,-6.51281c-1.14173,-1.09801 -2.28346,-2.19603 -3.45978,-3.32732c-6.18866,-5.87763 -12.55753,-11.52713 -18.92759,-17.17601c-6.57712,-5.90415 -6.57712,-5.90415 -8.47469,-9.97835l0.00001,0z"/>
      </g>
     </g>
    </g>
   </g>
  </g>
 </g>

</svg>